<svg xmlns="http://www.w3.org/2000/svg" viewBox="0 0 512.33 128.4"><defs><style>.cls-1{fill:#fff;}</style></defs><title>logo_ciudad</title><g id="Capa_2" data-name="Capa 2"><g id="Capa_2-2" data-name="Capa 2"><path class="cls-1" d="M195.82-295.87a3.28,3.28,0,0,0,2.92,1.53,3.84,3.84,0,0,0,2.92-1.71l29.53-37.82a3.45,3.45,0,0,1,4.83-.49,3.52,3.52,0,0,1,.59,4.67L230-321.23v.05a3.22,3.22,0,0,0-.92,2.26,3.3,3.3,0,0,0,.81,2.11h0l6.64,8.42L257.47-335l-8.36-10.69-1.54-2c-1.36-1.95-4.39-2.41-4.39-2.41H230.64a6.81,6.81,0,0,0-5.14,2.3l-35.12,45.1Z" transform="translate(-25 367)"/><path class="cls-1" d="M194.34-319l-8.4-10.77a3.42,3.42,0,0,1,.81-4.77,3.41,3.41,0,0,1,4.77.81,1.82,1.82,0,0,1,.15.23l7,8.92,8.23-10.6-9.49-12.2a6.34,6.34,0,0,0-5.72-2.78H180.32a6.28,6.28,0,0,0-5.18,2.25l-10,12.71,20.94,26.76Z" transform="translate(-25 367)"/><path class="cls-1" d="M226.72-309.78a3.49,3.49,0,0,0-2.84-1.47,3.22,3.22,0,0,0-2.72,1.31L191.32-271.6a3.58,3.58,0,0,1-5,.52,3.46,3.46,0,0,1-.42-4.71l6.7-8.59v-.05a3.22,3.22,0,0,0,.13-4.36h0l-6.62-8.44-21,26.93,11.71,14.83,18.41,0,37.05-47.35Z" transform="translate(-25 367)"/><path class="cls-1" d="M228.25-286.68l8.48,10.89a3.39,3.39,0,0,1-.51,4.71c-3.22,2.18-5.24-1.08-5.24-1.08l-7.09-9-8.23,10.6,11.86,15.19,18.27-.05,11.72-15-21-26.81Z" transform="translate(-25 367)"/><path class="cls-1" d="M257.35-298.22a4.51,4.51,0,0,1-4.55-4.47,4.5,4.5,0,0,1,4.47-4.55,4.52,4.52,0,0,1,4.55,4.47v0a4.49,4.49,0,0,1-4.47,4.51m0-12.88a8.38,8.38,0,0,0-8.3,8.47,8.38,8.38,0,0,0,8.47,8.29,8.38,8.38,0,0,0,8.3-8.39,8.45,8.45,0,0,0-8.5-8.38" transform="translate(-25 367)"/><path class="cls-1" d="M211.25-363a4.5,4.5,0,0,1,4.55,4.47,4.52,4.52,0,0,1-4.47,4.55,4.51,4.51,0,0,1-4.55-4.47v0a4.49,4.49,0,0,1,4.47-4.51m0,12.88a8.45,8.45,0,0,0,8.5-8.37,8.49,8.49,0,0,0-8.5-8.5,8.49,8.49,0,0,0-8.49,8.5,8.43,8.43,0,0,0,8.49,8.38" transform="translate(-25 367)"/><path class="cls-1" d="M160.56-302.75a4.47,4.47,0,0,1,4.5-4.44,4.47,4.47,0,0,1,4.44,4.5,4.47,4.47,0,0,1-4.47,4.44,4.49,4.49,0,0,1-4.47-4.5m13,0a8.5,8.5,0,0,0-8.35-8.64,8.5,8.5,0,0,0-8.65,8.35,8.5,8.5,0,0,0,8.36,8.64H165a8.45,8.45,0,0,0,8.5-8.38" transform="translate(-25 367)"/><path class="cls-1" d="M211.26-242.48a4.51,4.51,0,0,1-4.55-4.47,4.51,4.51,0,0,1,4.47-4.55,4.5,4.5,0,0,1,4.55,4.47v0a4.49,4.49,0,0,1-4.46,4.51h0m0-12.89a8.39,8.39,0,0,0-8.27,8.5,8.39,8.39,0,0,0,8.5,8.27,8.39,8.39,0,0,0,8.27-8.39,8.45,8.45,0,0,0-8.5-8.38" transform="translate(-25 367)"/><path class="cls-1" d="M122.59-358.55H25v65.08C25-257.75,73.78-247,73.78-247h0s48.77-10.76,48.77-46.48Zm-2.41,2.42v62.66a34,34,0,0,1-7.07,20.82A54.82,54.82,0,0,1,97.1-259a93.4,93.4,0,0,1-23.31,9.52,93.19,93.19,0,0,1-23.2-9.47A55.4,55.4,0,0,1,34.48-272.6a33.89,33.89,0,0,1-7.06-20.87v-62.71Z" transform="translate(-25 367)"/><path class="cls-1" d="M85.62-337.72v-6H79.47v5.58H77.05v-5.58H70.73v5.58H68.32v-5.58H62.09v6l3,5.24a1.15,1.15,0,0,1,.16.6v27.39h3v-9.84c0-2.31,2.63-4.42,5.53-4.42s5.54,2.11,5.54,4.42v9.84h3v-27.39a1.22,1.22,0,0,1,.17-.61Z" transform="translate(-25 367)"/><path class="cls-1" d="M62.92-303.87v-9.05l-1.09.66a1.22,1.22,0,0,1-1.3,0l-1.32-.91a.24.24,0,0,1,0,.12l0,3.49a1.16,1.16,0,0,1-.46.93,1.58,1.58,0,0,1,.38.21,4.39,4.39,0,0,1,1.35,4.55Z" transform="translate(-25 367)"/><path class="cls-1" d="M73.78-316.36c-1.84,0-3.13,1.31-3.13,2v9.83h6.27v-9.83c0-.71-1.3-2-3.14-2" transform="translate(-25 367)"/><path class="cls-1" d="M37.2-303.87a10.65,10.65,0,0,1-.8-2.76,20.9,20.9,0,0,1-.24-3.71,1.21,1.21,0,0,1,.81-1.1l2.62-.81-3-2.1a1.15,1.15,0,0,1-.43-1v-3.31a1.15,1.15,0,0,1,.64-1.06l1.15-.61v-1.13l-1.05-.42a1.22,1.22,0,0,1-.75-1.11v-4a1.19,1.19,0,0,1,1.19-1.2l3.73,0a13.15,13.15,0,0,1,.15-3.43,15.32,15.32,0,0,1,1.61-3.85l-.2-1.39a1.21,1.21,0,0,1,.28-1,1.19,1.19,0,0,1,.91-.42h2a1.19,1.19,0,0,1,.64.18L51.39-335h2.23a1.2,1.2,0,0,1,1.18,1.22v0l-.2,3.89a1.2,1.2,0,0,1-.39.81H55.7a1.16,1.16,0,0,1,.86.37l.69.7.51-.4.87-1.82a1.19,1.19,0,0,1,1.08-.69h3.18v-.68l-3-5.23a1.25,1.25,0,0,1-.16-.6v-7.52a1.2,1.2,0,0,1,1.2-1.2H86.82a1.2,1.2,0,0,1,1.2,1.2v7.51a1.16,1.16,0,0,1-.17.6l-3.1,5.24v.67h3.16a1.2,1.2,0,0,1,1.09.7l.87,1.82.51.39.68-.71a1.17,1.17,0,0,1,.86-.35h1.54a1.2,1.2,0,0,1-.39-.81l-.17-3.85a1.2,1.2,0,0,1,1.15-1.25h2.29l4.88-3.1a1.21,1.21,0,0,1,.64-.18h2a1.19,1.19,0,0,1,.91.42,1.2,1.2,0,0,1,.28.95l-.23,1.37a15.86,15.86,0,0,1,1.61,3.85,13.62,13.62,0,0,1,.15,3.43h3.71a1.21,1.21,0,0,1,1.18,1.2h0v4a1.2,1.2,0,0,1-.75,1.11l-1,.42v1.14l1.16.6a1.22,1.22,0,0,1,.64,1.07v3.29a1.17,1.17,0,0,1-.51,1l-3,2.12,2.62.81a1.22,1.22,0,0,1,.81,1.1,20.9,20.9,0,0,1-.24,3.71,11.08,11.08,0,0,1-.81,2.76h4.42v-46.38H32.85v46.38Z" transform="translate(-25 367)"/><path class="cls-1" d="M88.54-308.48a1.28,1.28,0,0,1,.38-.21,1.16,1.16,0,0,1-.46-.92l0-3.5v-.11l-1.31.9a1.22,1.22,0,0,1-1.3,0l-1-.6v9.05h2.42a4.36,4.36,0,0,1,1.37-4.61" transform="translate(-25 367)"/><path class="cls-1" d="M104.48-279.1a1.2,1.2,0,0,1-1.2-1.2v-7.81a2.84,2.84,0,0,0-.9-1.84,3.32,3.32,0,0,0-2.48-1A3.15,3.15,0,0,0,96.8-288v7.79a1.2,1.2,0,0,1-1.18,1.16H88.48a1.2,1.2,0,0,1-1.2-1.2v-7.81a2.76,2.76,0,0,0-.89-1.84,3.31,3.31,0,0,0-2.47-1,3,3,0,0,0-2.08.8l5.87,29.91c8.25-3.66,18-9.67,23.3-18.89Z" transform="translate(-25 367)"/><path class="cls-1" d="M85.41-259.43l-8.25-42H70.47l-8.24,42.06a.53.53,0,0,1,0,.17,113.32,113.32,0,0,0,11.66,3.94,111,111,0,0,0,11.62-3.92.83.83,0,0,1-.06-.21" transform="translate(-25 367)"/><path class="cls-1" d="M65.8-290.12a3.08,3.08,0,0,0-2-.81H63.7a3.34,3.34,0,0,0-2.42,1,2.82,2.82,0,0,0-.84,1.85v7.85a1.2,1.2,0,0,1-1.23,1.16H52.07a1.23,1.23,0,0,1-.81-.34,1.25,1.25,0,0,1-.35-.86V-288a3.14,3.14,0,0,0-3.1-2.86h-.07a3.34,3.34,0,0,0-2.41,1,2.84,2.84,0,0,0-.9,1.84v7.85a1.19,1.19,0,0,1-1.22,1.16H36.7c5.27,9.24,15,15.2,23.25,18.87Z" transform="translate(-25 367)"/><path class="cls-1" d="M114.8-301.47H79.61l1.73,8.86a5.37,5.37,0,0,1,2.54-.66,5.73,5.73,0,0,1,4.19,1.65,5.15,5.15,0,0,1,1.61,3.55v6.65h4.74v-6.69a.21.21,0,0,1,0-.11,5.57,5.57,0,0,1,5.48-5.09,5.69,5.69,0,0,1,4.19,1.65,5.15,5.15,0,0,1,1.61,3.55v6.65h6.56a29.1,29.1,0,0,0,2.62-12.22v-7.79h-.06" transform="translate(-25 367)"/><path class="cls-1" d="M42-281.46v-6.65a5.15,5.15,0,0,1,1.61-3.55,5.84,5.84,0,0,1,4.19-1.65,5.59,5.59,0,0,1,5.46,5.09v6.76H58v-6.65a5.2,5.2,0,0,1,1.61-3.55,5.84,5.84,0,0,1,4.19-1.65,5.58,5.58,0,0,1,2.5.63L68-301.47H32.85v7.79a29.13,29.13,0,0,0,2.62,12.22Z" transform="translate(-25 367)"/><path class="cls-1" d="M44.83-306.34h1.92a2.05,2.05,0,0,1,.27.8v.49a5.88,5.88,0,0,1-.16,1.18H40.1c-1-.67-1.47-3.34-1.51-5.53l3-.92a1.2,1.2,0,0,0,.84-1.15v-1.16a1.15,1.15,0,0,0-.5-1l-3.31-2.34v-2l1.16-.59a1.22,1.22,0,0,0,.64-1.07v-2.67a1.18,1.18,0,0,0-.76-1.13l-1-.43v-2h3.14l1.5,2.42V-320l-1,3.22a1.21,1.21,0,0,0,.18,1.07,1.18,1.18,0,0,0,1,.49h.91a1.19,1.19,0,0,0,1.18-1,18.59,18.59,0,0,1,.64-2.75,12.55,12.55,0,0,1,1.61-2.33,1.19,1.19,0,0,0,0-1.56l-4.18-4.75a13.64,13.64,0,0,1,0-3.61A13.64,13.64,0,0,1,45-334.63a1.21,1.21,0,0,0,.16-.81l0-.43h.26l4.88,3.1a1.23,1.23,0,0,0,.65.19h1.33l-.08,1.78-1.61.58a1.2,1.2,0,0,0-.8,1.13v1.23a1.2,1.2,0,0,0,1.15,1.25h4.27l1.07,1.11a1.2,1.2,0,0,0,1.61.13s1.87-1.49,2-1.66l.62-1.43h2.41v4.37s-4.36,1.51-4.72,1.68-.45,1.5-.4,1.82,0,.46.5.81a12.55,12.55,0,0,0,1.67,1.13l1.27-1.22,1.69.12v4l-1.61,1-5-3.45a1.2,1.2,0,0,0-1.61.25l-.81,1a1.2,1.2,0,0,0,.12,1.61l2.89,2.7v2.2l-2.89,1.28a1.19,1.19,0,0,0-.72,1.12v.5a1.2,1.2,0,0,0,1.2,1.2h3.48a2.58,2.58,0,0,1,.11,2.47H50a2.3,2.3,0,0,1-.47-1.35v-.46a9.64,9.64,0,0,1,.18-2l1.87-2.42a1.18,1.18,0,0,0,.25-.68l.05-1.14a1.2,1.2,0,0,0-1.14-1.26,1.13,1.13,0,0,0-.51.09l-3,1.22a1.22,1.22,0,0,0-.73.94l-.23,1.24-1.75.52a1.2,1.2,0,0,0-.85,1.15v.49a1.2,1.2,0,0,0,1.2,1.2" transform="translate(-25 367)"/><path class="cls-1" d="M102.8-306.34h-2a2.07,2.07,0,0,0-.28.8v.49a5.21,5.21,0,0,0,.14,1.18h6.81c1-.67,1.48-3.34,1.53-5.53l-3-.92a1.23,1.23,0,0,1-.81-1.15v-1.16a1.19,1.19,0,0,1,.51-1l3.32-2.34v-2l-1.16-.59a1.21,1.21,0,0,1-.65-1.07v-2.67a1.19,1.19,0,0,1,.69-1.13l1.05-.43v-2h-3.15l-1.49,2.42V-320l1,3.22a1.2,1.2,0,0,1-.17,1.07,1.18,1.18,0,0,1-1,.49h-.9a1.2,1.2,0,0,1-1.19-1,19.22,19.22,0,0,0-.66-2.77,11.88,11.88,0,0,0-1.61-2.32,1.22,1.22,0,0,1,0-1.57l4.13-4.73a12.84,12.84,0,0,0,0-3.61,13.62,13.62,0,0,0-1.5-3.48,1.21,1.21,0,0,1-.17-.81l.06-.43h-.26l-4.88,3.1a1.36,1.36,0,0,1-.65.19H95.31l.08,1.78,1.57.58a1.19,1.19,0,0,1,.81,1.13v1.23a1.2,1.2,0,0,1-1.16,1.24H92.44l-1.07,1.09a1.2,1.2,0,0,1-1.61.12s-1.86-1.49-1.94-1.66l-.67-1.4H84.74v4.37s4.38,1.5,4.74,1.68.44,1.5.4,1.82,0,.46-.51.81a11.93,11.93,0,0,1-1.67,1.13l-1.25-1.21-1.68.12v4l1.61,1,5-3.45A1.22,1.22,0,0,1,93-318l.8,1a1.2,1.2,0,0,1-.13,1.61l-2.88,2.7v2.19l2.89,1.28a1.22,1.22,0,0,1,.71,1.1v.49a1.2,1.2,0,0,1-1.2,1.2H89.77a2.53,2.53,0,0,0-.1,2.47h8a2.29,2.29,0,0,0,.48-1.35,3.53,3.53,0,0,1,0-.46,8.42,8.42,0,0,0-.18-2l-1.87-2.42a1.23,1.23,0,0,1-.25-.68l0-1.15A1.19,1.19,0,0,1,97-313.2a1.43,1.43,0,0,1,.46.07l3,1.23a1.2,1.2,0,0,1,.73.94l.24,1.26,1.75.52A1.2,1.2,0,0,1,104-308v.49a1.2,1.2,0,0,1-1.2,1.2" transform="translate(-25 367)"/><path class="cls-1" d="M291.54-316.95V-317a8.34,8.34,0,0,1,8.09-8.59h.24a8.77,8.77,0,0,1,6.22,2.24L304.88-322a7.08,7.08,0,0,0-5.06-1.9c-3.69,0-6.32,3.11-6.32,6.81v.05c0,4,2.54,6.92,6.58,6.92a7.84,7.84,0,0,0,4.83-1.67v-4.15h-5.06v-1.69h6.87V-311a10,10,0,0,1-6.68,2.55c-5.23,0-8.46-3.8-8.46-8.55" transform="translate(-25 367)"/><path class="cls-1" d="M327.84-316.95V-317a6.61,6.61,0,0,0-6.35-6.86h-.21a6.53,6.53,0,0,0-6.51,6.81v.05a6.61,6.61,0,0,0,6.35,6.86h.21a6.54,6.54,0,0,0,6.51-6.82m-15,0v0a8.49,8.49,0,0,1,8.46-8.51,8.5,8.5,0,0,1,8.51,8.46v.05a8.48,8.48,0,0,1-8.46,8.5,8.48,8.48,0,0,1-8.51-8.45" transform="translate(-25 367)"/><path class="cls-1" d="M343.6-316.27h-5.25v5.87h5.59c2.52,0,4.09-1.11,4.09-3v-.05c0-1.8-1.52-2.85-4.42-2.85m3.48-4.71c0-1.61-1.3-2.71-3.68-2.71h-5.06V-318h4.92c2.25,0,3.82-1,3.82-3Zm-10.59-4.4h7.07a6.11,6.11,0,0,1,4.35,1.48,3.62,3.62,0,0,1,1.07,2.66v0a4,4,0,0,1-2.63,3.89c2,.59,3.56,1.73,3.56,4v.05c0,2.85-2.42,4.54-6,4.54H336.5Z" transform="translate(-25 367)"/><rect class="cls-1" x="331.63" y="41.66" width="1.88" height="16.63"/><polygon class="cls-1" points="341.1 41.66 353.12 41.66 353.12 43.36 342.98 43.36 342.98 49.04 352.06 49.04 352.06 50.76 342.98 50.76 342.98 56.57 353.24 56.57 353.24 58.29 341.1 58.29 341.1 41.66"/><path class="cls-1" d="M391.46-316.86c2.5,0,4.28-1.28,4.28-3.43v0c0-2-1.56-3.28-4.25-3.28h-5.13v6.75Zm-7-8.48h7.15a6.51,6.51,0,0,1,4.73,1.66,4.56,4.56,0,0,1,1.28,3.28v0c0,2.75-1.9,4.36-4.51,4.83l5.11,6.8h-2.31l-4.83-6.44h-4.75v6.44h-1.88Z" transform="translate(-25 367)"/><polygon class="cls-1" points="379.39 41.66 381.15 41.66 391.63 54.99 391.63 41.66 393.45 41.66 393.45 58.29 391.95 58.29 381.22 44.65 381.22 58.29 379.39 58.29 379.39 41.66"/><path class="cls-1" d="M440.18-316.95V-317a6.59,6.59,0,0,0-6.34-6.86h-.21a6.53,6.53,0,0,0-6.51,6.81v.05a6.61,6.61,0,0,0,6.35,6.86h.21a6.53,6.53,0,0,0,6.5-6.82m-15,0v0a8.49,8.49,0,0,1,8.46-8.51,8.48,8.48,0,0,1,8.5,8.46v.05a8.47,8.47,0,0,1-8.45,8.5,8.47,8.47,0,0,1-8.51-8.45" transform="translate(-25 367)"/><path class="cls-1" d="M459.38-323.61v13.16h3.89c4.21,0,6.89-2.85,6.89-6.53v0c0-3.68-2.68-6.58-6.89-6.58Zm-1.87-1.73h5.77c5.23,0,8.86,3.58,8.86,8.26v.05c0,4.68-3.61,8.32-8.86,8.32h-5.77Z" transform="translate(-25 367)"/><polygon class="cls-1" points="453.08 41.66 465.1 41.66 465.1 43.36 454.95 43.36 454.95 49.04 464.02 49.04 464.02 50.76 454.95 50.76 454.95 56.57 465.22 56.57 465.22 58.29 453.08 58.29 453.08 41.66"/><polygon class="cls-1" points="480.16 41.66 482.03 41.66 482.03 56.55 491.39 56.55 491.39 58.29 480.16 58.29 480.16 41.66"/><path class="cls-1" d="M532.55-314.82l-3.78-8.45-3.8,8.45Zm-4.63-10.64h1.75l7.57,16.75h-2l-2-4.4h-9l-2,4.4h-1.93Z" transform="translate(-25 367)"/><path class="cls-1" d="M291.18-288.47v0a8.45,8.45,0,0,1,8.29-8.6h.38a8.51,8.51,0,0,1,6.55,2.57l-2.32,2.68a6.18,6.18,0,0,0-4.26-1.88,4.94,4.94,0,0,0-4.83,5.18v.05a4.94,4.94,0,0,0,4.83,5.23,6.07,6.07,0,0,0,4.38-1.95l2.32,2.35a8.49,8.49,0,0,1-6.81,3,8.4,8.4,0,0,1-8.53-8.25v-.3" transform="translate(-25 367)"/><rect class="cls-1" x="284.55" y="70.17" width="3.66" height="16.63"/><path class="cls-1" d="M317.42-287.33v-9.49h3.66v9.39c0,2.71,1.36,4.11,3.59,4.11s3.58-1.35,3.58-4v-9.48h3.66v9.37c0,5-2.83,7.51-7.29,7.51s-7.2-2.5-7.2-7.39" transform="translate(-25 367)"/><path class="cls-1" d="M342.56-283.51a4.73,4.73,0,0,0,5-4.43,4.68,4.68,0,0,0,0-.53v0a4.77,4.77,0,0,0-4.51-5,4.17,4.17,0,0,0-.5,0h-2.83v10Zm-6.44-13.32h6.44c5.23,0,8.86,3.58,8.86,8.26v.05c0,4.68-3.61,8.31-8.86,8.31h-6.44Z" transform="translate(-25 367)"/><path class="cls-1" d="M363.35-287.15l-2.21-5.39-2.21,5.39Zm-3.85-9.79h3.37L370-280.19h-3.83l-1.51-3.74h-7l-1.53,3.73h-3.72Z" transform="translate(-25 367)"/><path class="cls-1" d="M379.13-283.51a4.73,4.73,0,0,0,5-4.43,4.68,4.68,0,0,0,0-.53v0a4.76,4.76,0,0,0-4.51-5,4.17,4.17,0,0,0-.5,0h-2.82v10Zm-6.48-13.31h6.48c5.23,0,8.86,3.59,8.86,8.27v.05c0,4.68-3.61,8.31-8.86,8.31h-6.48Z" transform="translate(-25 367)"/><path class="cls-1" d="M405.08-283.51a4.73,4.73,0,0,0,5-4.43,4.68,4.68,0,0,0,0-.53v0a4.76,4.76,0,0,0-4.51-5,4,4,0,0,0-.49,0h-2.83v10Zm-6.45-13.32h6.45c5.22,0,8.85,3.58,8.85,8.26v.05c0,4.68-3.6,8.31-8.85,8.31h-6.45Z" transform="translate(-25 367)"/><polygon class="cls-1" points="392.38 70.17 404.92 70.17 404.92 73.42 396.01 73.42 396.01 76.8 403.86 76.8 403.86 80.05 396.01 80.05 396.01 83.54 405.04 83.54 405.04 86.79 392.38 86.79 392.38 70.17"/><polygon class="cls-1" points="415.67 70.17 419.61 70.17 423.98 77.2 428.35 70.17 432.29 70.17 432.29 86.79 428.66 86.79 428.66 75.94 423.98 83.04 423.88 83.04 419.25 76.01 419.25 86.79 415.67 86.79 415.67 70.17"/><path class="cls-1" d="M468.61-302.34l3.11,1.35-3,2.85h-2.76Zm-6.95,5.52H474.2v3.23h-8.91v3.37h7.83V-287h-7.83v3.49h9v3.22H461.66Z" transform="translate(-25 367)"/><polygon class="cls-1" points="457.47 78.33 451.91 70.17 456.18 70.17 459.67 75.56 463.19 70.17 467.35 70.17 461.79 78.29 467.58 86.79 463.31 86.79 459.58 81.1 455.82 86.79 451.67 86.79 457.47 78.33"/><rect class="cls-1" x="470.39" y="70.17" width="3.66" height="16.63"/><path class="cls-1" d="M502.61-288.47v0a8.44,8.44,0,0,1,8.29-8.6h.38a8.58,8.58,0,0,1,6.56,2.57l-2.34,2.68a6.18,6.18,0,0,0-4.25-1.88,4.94,4.94,0,0,0-4.84,5.18v.05a5,5,0,0,0,4.84,5.23,6.06,6.06,0,0,0,4.37-1.95l2.33,2.35a8.52,8.52,0,0,1-6.82,3,8.4,8.4,0,0,1-8.52-8.26v-.29" transform="translate(-25 367)"/><path class="cls-1" d="M533.51-288.47v0a5.06,5.06,0,0,0-4.89-5.22h-.15a5,5,0,0,0-5,5,1.62,1.62,0,0,0,0,.22v.05a5.05,5.05,0,0,0,4.89,5.22h.15a5,5,0,0,0,5-5v-.21m-13.85,0v0a8.87,8.87,0,0,1,9.47-8.21,8.85,8.85,0,0,1,8.2,8.16v.05a8.86,8.86,0,0,1-9.46,8.21,8.87,8.87,0,0,1-8.21-8.16" transform="translate(-25 367)"/></g></g></svg>